<?xml version="1.0" encoding="iso-8859-1"?>
<!-- Generator: Adobe Illustrator 19.0.0, SVG Export Plug-In . SVG Version: 6.00 Build 0)  -->
<svg version="1.1" id="Capa_1" xmlns="http://www.w3.org/2000/svg" xmlns:xlink="http://www.w3.org/1999/xlink" x="0px" y="0px"
	 viewBox="0 0 512.002 512.002" style="enable-background:new 0 0 512.002 512.002;" xml:space="preserve">
<path style="fill:#994C00;" d="M476.668,99.396l-6.786-8.729l-10.173,4.329c-6.084,2.589-12.496,3.957-18.544,3.957
	c-12.2,0-23.634-4.817-33.982-14.316c-10.514-9.652-12.902-24.59-13.39-32.637l-0.646-10.642l-10.374-2.46
	c-12.71-3.014-25.811-4.543-38.938-4.543c-92.727,0-168.166,75.439-168.166,168.167s75.439,168.167,168.166,168.167
	c92.728,0,168.167-75.439,168.167-168.167C512,164.79,499.782,129.129,476.668,99.396z"/>
<path style="fill:#BF6100;" d="M337.518,233.597c-8.849-20.921-21.512-39.705-37.636-55.83
	c-16.125-16.125-34.908-28.787-55.83-37.636c-21.674-9.167-44.682-13.815-68.385-13.815c-23.704,0-46.712,4.648-68.385,13.815
	c-20.921,8.849-39.705,21.512-55.83,37.636c-16.125,16.125-28.787,34.909-37.636,55.83C4.648,255.271,0,278.279,0,301.982
	c0,23.704,4.648,46.712,13.815,68.385c8.849,20.921,21.512,39.705,37.636,55.83c16.125,16.125,34.909,28.787,55.83,37.636
	c21.674,9.167,44.682,13.815,68.385,13.815c23.704,0,46.712-4.648,68.385-13.815c20.922-8.849,39.705-21.512,55.83-37.636
	c16.125-16.125,28.787-34.909,37.636-55.83c9.167-21.674,13.815-44.682,13.815-68.385
	C351.333,278.279,346.685,255.271,337.518,233.597z"/>
<g>
	<rect x="76" y="219.272" style="fill:#FFDAA8;" width="30" height="30"/>
	<rect x="196.83" y="180.022" style="fill:#FFDAA8;" width="30" height="30"/>
	<rect x="165.67" y="297.771" style="fill:#FFDAA8;" width="30" height="30"/>
	<rect x="61" y="341.271" style="fill:#FFDAA8;" width="30" height="30"/>
	<rect x="196.83" y="394.771" style="fill:#FFDAA8;" width="30" height="30"/>
	<rect x="264.17" y="267.771" style="fill:#FFDAA8;" width="30" height="30"/>
</g>
<g>
	<rect x="401" y="276.771" style="fill:#FFC373;" width="30" height="30"/>
	<rect x="431" y="180.022" style="fill:#FFC373;" width="30" height="30"/>
	<rect x="336.33" y="158.782" style="fill:#FFC373;" width="30" height="30"/>
	<rect x="293.5" y="77.927" style="fill:#FFC373;" width="30" height="30"/>
</g>
<g>
</g>
<g>
</g>
<g>
</g>
<g>
</g>
<g>
</g>
<g>
</g>
<g>
</g>
<g>
</g>
<g>
</g>
<g>
</g>
<g>
</g>
<g>
</g>
<g>
</g>
<g>
</g>
<g>
</g>
</svg>
